<svg width="186" height="84" viewBox="0 0 186 84" fill="none" xmlns="http://www.w3.org/2000/svg">
<path d="M0.5 10C0.5 4.7533 4.7533 0.5 10 0.5H176C181.247 0.5 185.5 4.7533 185.5 10V74C185.5 79.2467 181.247 83.5 176 83.5H10C4.7533 83.5 0.5 79.2467 0.5 74V10Z" fill="url(#paint0_linear_1_59)" fill-opacity="0.2" stroke="url(#paint1_linear_1_59)"/>
<path d="M72.1388 52.8063H66.4676L65.5292 55.5195H62.5304L67.6508 41.2599H70.976L76.0964 55.5195H73.0772L72.1388 52.8063ZM71.3636 50.5215L69.3032 44.5647L67.2428 50.5215H71.3636ZM80.8663 45.8499C81.2335 45.3331 81.7367 44.9047 82.3759 44.5647C83.0287 44.2111 83.7699 44.0343 84.5995 44.0343C85.5651 44.0343 86.4355 44.2723 87.2107 44.7483C87.9995 45.2243 88.6183 45.9043 89.0671 46.7883C89.5295 47.6587 89.7607 48.6719 89.7607 49.8279C89.7607 50.9839 89.5295 52.0107 89.0671 52.9083C88.6183 53.7923 87.9995 54.4791 87.2107 54.9687C86.4355 55.4583 85.5651 55.7031 84.5995 55.7031C83.7699 55.7031 83.0355 55.5331 82.3963 55.1931C81.7707 54.8531 81.2607 54.4247 80.8663 53.9079V60.9051H78.0103V44.2179H80.8663V45.8499ZM86.8435 49.8279C86.8435 49.1479 86.7007 48.5631 86.4151 48.0735C86.1431 47.5703 85.7759 47.1895 85.3135 46.9311C84.8647 46.6727 84.3751 46.5435 83.8447 46.5435C83.3279 46.5435 82.8383 46.6795 82.3759 46.9515C81.9271 47.2099 81.5599 47.5907 81.2743 48.0939C81.0023 48.5971 80.8663 49.1887 80.8663 49.8687C80.8663 50.5487 81.0023 51.1403 81.2743 51.6435C81.5599 52.1467 81.9271 52.5343 82.3759 52.8063C82.8383 53.0647 83.3279 53.1939 83.8447 53.1939C84.3751 53.1939 84.8647 53.0579 85.3135 52.7859C85.7759 52.5139 86.1431 52.1263 86.4151 51.6231C86.7007 51.1199 86.8435 50.5215 86.8435 49.8279ZM94.6921 45.8499C95.0593 45.3331 95.5625 44.9047 96.2017 44.5647C96.8545 44.2111 97.5957 44.0343 98.4253 44.0343C99.3909 44.0343 100.261 44.2723 101.037 44.7483C101.825 45.2243 102.444 45.9043 102.893 46.7883C103.355 47.6587 103.587 48.6719 103.587 49.8279C103.587 50.9839 103.355 52.0107 102.893 52.9083C102.444 53.7923 101.825 54.4791 101.037 54.9687C100.261 55.4583 99.3909 55.7031 98.4253 55.7031C97.5957 55.7031 96.8613 55.5331 96.2221 55.1931C95.5965 54.8531 95.0865 54.4247 94.6921 53.9079V60.9051H91.8361V44.2179H94.6921V45.8499ZM100.669 49.8279C100.669 49.1479 100.527 48.5631 100.241 48.0735C99.9689 47.5703 99.6017 47.1895 99.1393 46.9311C98.6905 46.6727 98.2009 46.5435 97.6705 46.5435C97.1537 46.5435 96.6641 46.6795 96.2017 46.9515C95.7529 47.2099 95.3857 47.5907 95.1001 48.0939C94.8281 48.5971 94.6921 49.1887 94.6921 49.8687C94.6921 50.5487 94.8281 51.1403 95.1001 51.6435C95.3857 52.1467 95.7529 52.5343 96.2017 52.8063C96.6641 53.0647 97.1537 53.1939 97.6705 53.1939C98.2009 53.1939 98.6905 53.0579 99.1393 52.7859C99.6017 52.5139 99.9689 52.1263 100.241 51.6231C100.527 51.1199 100.669 50.5215 100.669 49.8279ZM115.439 55.6623C114.446 55.6623 113.549 55.4923 112.746 55.1523C111.958 54.8123 111.332 54.3227 110.87 53.6835C110.407 53.0443 110.169 52.2895 110.156 51.4191H113.216C113.256 52.0039 113.46 52.4663 113.828 52.8063C114.208 53.1463 114.725 53.3163 115.378 53.3163C116.044 53.3163 116.568 53.1599 116.949 52.8471C117.33 52.5207 117.52 52.0991 117.52 51.5823C117.52 51.1607 117.391 50.8139 117.132 50.5419C116.874 50.2699 116.548 50.0591 116.153 49.9095C115.772 49.7463 115.242 49.5695 114.562 49.3791C113.637 49.1071 112.882 48.8419 112.298 48.5835C111.726 48.3115 111.23 47.9103 110.808 47.3799C110.4 46.8359 110.196 46.1151 110.196 45.2175C110.196 44.3743 110.407 43.6399 110.829 43.0143C111.25 42.3887 111.842 41.9127 112.604 41.5863C113.365 41.2463 114.236 41.0763 115.215 41.0763C116.684 41.0763 117.874 41.4367 118.785 42.1575C119.71 42.8647 120.22 43.8575 120.315 45.1359H117.173C117.146 44.6463 116.935 44.2451 116.541 43.9323C116.16 43.6059 115.65 43.4427 115.011 43.4427C114.453 43.4427 114.004 43.5855 113.664 43.8711C113.338 44.1567 113.175 44.5715 113.175 45.1155C113.175 45.4963 113.297 45.8159 113.542 46.0743C113.8 46.3191 114.113 46.5231 114.48 46.6863C114.861 46.8359 115.392 47.0127 116.072 47.2167C116.996 47.4887 117.751 47.7607 118.336 48.0327C118.921 48.3047 119.424 48.7127 119.846 49.2567C120.267 49.8007 120.478 50.5147 120.478 51.3987C120.478 52.1603 120.281 52.8675 119.886 53.5203C119.492 54.1731 118.914 54.6967 118.152 55.0911C117.391 55.4719 116.486 55.6623 115.439 55.6623ZM126.279 46.5639V52.0311C126.279 52.4119 126.368 52.6907 126.544 52.8675C126.735 53.0307 127.048 53.1123 127.483 53.1123H128.809V55.5195H127.014C124.606 55.5195 123.403 54.3499 123.403 52.0107V46.5639H122.056V44.2179H123.403V41.4231H126.279V44.2179H128.809V46.5639H126.279ZM135.881 55.7031C134.793 55.7031 133.814 55.4651 132.944 54.9891C132.073 54.4995 131.387 53.8127 130.883 52.9287C130.394 52.0447 130.149 51.0247 130.149 49.8687C130.149 48.7127 130.401 47.6927 130.904 46.8087C131.421 45.9247 132.121 45.2447 133.005 44.7687C133.889 44.2791 134.875 44.0343 135.963 44.0343C137.051 44.0343 138.037 44.2791 138.921 44.7687C139.805 45.2447 140.499 45.9247 141.002 46.8087C141.519 47.6927 141.777 48.7127 141.777 49.8687C141.777 51.0247 141.512 52.0447 140.981 52.9287C140.465 53.8127 139.757 54.4995 138.86 54.9891C137.976 55.4651 136.983 55.7031 135.881 55.7031ZM135.881 53.2143C136.398 53.2143 136.881 53.0919 137.33 52.8471C137.792 52.5887 138.159 52.2079 138.431 51.7047C138.703 51.2015 138.839 50.5895 138.839 49.8687C138.839 48.7943 138.554 47.9715 137.983 47.4003C137.425 46.8155 136.738 46.5231 135.922 46.5231C135.106 46.5231 134.419 46.8155 133.862 47.4003C133.318 47.9715 133.046 48.7943 133.046 49.8687C133.046 50.9431 133.311 51.7727 133.841 52.3575C134.385 52.9287 135.065 53.2143 135.881 53.2143ZM146.728 45.9723C147.095 45.3739 147.571 44.9047 148.156 44.5647C148.754 44.2247 149.434 44.0547 150.196 44.0547V47.0535H149.441C148.544 47.0535 147.864 47.2643 147.401 47.6859C146.952 48.1075 146.728 48.8419 146.728 49.8891V55.5195H143.872V44.2179H146.728V45.9723ZM162.626 49.6239C162.626 50.0319 162.599 50.3991 162.544 50.7255H154.282C154.35 51.5415 154.636 52.1807 155.139 52.6431C155.642 53.1055 156.261 53.3367 156.995 53.3367C158.056 53.3367 158.811 52.8811 159.26 51.9699H162.34C162.014 53.0579 161.388 53.9555 160.463 54.6627C159.539 55.3563 158.403 55.7031 157.057 55.7031C155.969 55.7031 154.989 55.4651 154.119 54.9891C153.262 54.4995 152.589 53.8127 152.099 52.9287C151.623 52.0447 151.385 51.0247 151.385 49.8687C151.385 48.6991 151.623 47.6723 152.099 46.7883C152.575 45.9043 153.242 45.2243 154.099 44.7483C154.955 44.2723 155.941 44.0343 157.057 44.0343C158.131 44.0343 159.09 44.2655 159.933 44.7279C160.79 45.1903 161.449 45.8499 161.912 46.7067C162.388 47.5499 162.626 48.5223 162.626 49.6239ZM159.668 48.8079C159.654 48.0735 159.389 47.4887 158.872 47.0535C158.355 46.6047 157.723 46.3803 156.975 46.3803C156.268 46.3803 155.669 46.5979 155.18 47.0331C154.704 47.4547 154.411 48.0463 154.303 48.8079H159.668Z" fill="white"/>
<path d="M65.3821 24.9819C66.2564 24.9819 67.0118 25.1468 67.6483 25.4765C68.2926 25.7986 68.7834 26.2626 69.1208 26.8685C69.4659 27.4744 69.6385 28.1876 69.6385 29.0082C69.6385 29.8288 69.4659 30.542 69.1208 31.1479C68.7834 31.7461 68.2926 32.2062 67.6483 32.5283C67.0118 32.8428 66.2564 33 65.3821 33H62.8858V24.9819H65.3821ZM65.3821 32.1372C66.4174 32.1372 67.2074 31.865 67.7519 31.3205C68.2964 30.7683 68.5686 29.9975 68.5686 29.0082C68.5686 28.0112 68.2926 27.2328 67.7404 26.6729C67.1959 26.1131 66.4098 25.8332 65.3821 25.8332H63.9326V32.1372H65.3821ZM73.7687 33.1035C73.1782 33.1035 72.6413 32.9693 72.1582 32.7009C71.6827 32.4325 71.3069 32.0529 71.0308 31.562C70.7624 31.0635 70.6282 30.4883 70.6282 29.8365C70.6282 29.1923 70.7662 28.6247 71.0423 28.1339C71.3261 27.6354 71.7095 27.2558 72.1927 26.995C72.6758 26.7266 73.2165 26.5924 73.8147 26.5924C74.4129 26.5924 74.9536 26.7266 75.4368 26.995C75.9199 27.2558 76.2995 27.6316 76.5756 28.1224C76.8594 28.6132 77.0013 29.1846 77.0013 29.8365C77.0013 30.4883 76.8555 31.0635 76.5641 31.562C76.2804 32.0529 75.8931 32.4325 75.4022 32.7009C74.9114 32.9693 74.3669 33.1035 73.7687 33.1035ZM73.7687 32.1832C74.1445 32.1832 74.4973 32.095 74.8271 31.9186C75.1568 31.7423 75.4214 31.4777 75.6208 31.1249C75.8279 30.7721 75.9314 30.3426 75.9314 29.8365C75.9314 29.3303 75.8317 28.9008 75.6323 28.548C75.4329 28.1953 75.1722 27.9345 74.8501 27.7658C74.528 27.5894 74.179 27.5012 73.8032 27.5012C73.4198 27.5012 73.067 27.5894 72.7449 27.7658C72.4304 27.9345 72.1774 28.1953 71.9856 28.548C71.7939 28.9008 71.698 29.3303 71.698 29.8365C71.698 30.3503 71.7901 30.7836 71.9741 31.1364C72.1658 31.4892 72.4189 31.7538 72.7334 31.9302C73.0478 32.0989 73.3929 32.1832 73.7687 32.1832ZM86.7754 26.6959L84.8083 33H83.7269L82.2084 27.9959L80.6899 33H79.6086L77.6299 26.6959H78.6998L80.1492 31.9877L81.7138 26.6959H82.7836L84.3136 31.9992L85.7401 26.6959H86.7754ZM90.8858 26.5809C91.6528 26.5809 92.274 26.8148 92.7495 27.2826C93.2249 27.7428 93.4627 28.41 93.4627 29.2843V33H92.4274V29.4338C92.4274 28.805 92.2701 28.3256 91.9557 27.9959C91.6413 27.6584 91.2118 27.4897 90.6673 27.4897C90.1151 27.4897 89.6741 27.6623 89.3443 28.0074C89.0222 28.3525 88.8612 28.8548 88.8612 29.5144V33H87.8143V26.6959H88.8612V27.5932C89.0683 27.2711 89.3482 27.0219 89.701 26.8455C90.0614 26.6691 90.4564 26.5809 90.8858 26.5809ZM96.2196 24.4872V33H95.1727V24.4872H96.2196ZM100.753 33.1035C100.163 33.1035 99.6257 32.9693 99.1426 32.7009C98.6671 32.4325 98.2913 32.0529 98.0152 31.562C97.7468 31.0635 97.6126 30.4883 97.6126 29.8365C97.6126 29.1923 97.7506 28.6247 98.0267 28.1339C98.3105 27.6354 98.6939 27.2558 99.1771 26.995C99.6603 26.7266 100.201 26.5924 100.799 26.5924C101.397 26.5924 101.938 26.7266 102.421 26.995C102.904 27.2558 103.284 27.6316 103.56 28.1224C103.844 28.6132 103.986 29.1846 103.986 29.8365C103.986 30.4883 103.84 31.0635 103.549 31.562C103.265 32.0529 102.877 32.4325 102.387 32.7009C101.896 32.9693 101.351 33.1035 100.753 33.1035ZM100.753 32.1832C101.129 32.1832 101.482 32.095 101.811 31.9186C102.141 31.7423 102.406 31.4777 102.605 31.1249C102.812 30.7721 102.916 30.3426 102.916 29.8365C102.916 29.3303 102.816 28.9008 102.617 28.548C102.417 28.1953 102.157 27.9345 101.834 27.7658C101.512 27.5894 101.163 27.5012 100.788 27.5012C100.404 27.5012 100.051 27.5894 99.7293 27.7658C99.4148 27.9345 99.1618 28.1953 98.97 28.548C98.7783 28.9008 98.6824 29.3303 98.6824 29.8365C98.6824 30.3503 98.7745 30.7836 98.9585 31.1364C99.1503 31.4892 99.4033 31.7538 99.7178 31.9302C100.032 32.0989 100.377 32.1832 100.753 32.1832ZM104.971 29.825C104.971 29.1808 105.101 28.6171 105.362 28.1339C105.623 27.6431 105.979 27.2635 106.432 26.995C106.892 26.7266 107.402 26.5924 107.962 26.5924C108.514 26.5924 108.993 26.7113 109.4 26.949C109.806 27.1868 110.109 27.4859 110.309 27.8463V26.6959H111.367V33H110.309V31.8266C110.102 32.1947 109.791 32.5015 109.377 32.7469C108.97 32.9847 108.495 33.1035 107.95 33.1035C107.391 33.1035 106.884 32.9655 106.432 32.6894C105.979 32.4133 105.623 32.026 105.362 31.5275C105.101 31.029 104.971 30.4615 104.971 29.825ZM110.309 29.8365C110.309 29.361 110.213 28.9468 110.021 28.5941C109.829 28.2413 109.569 27.9729 109.239 27.7888C108.917 27.5971 108.56 27.5012 108.169 27.5012C107.778 27.5012 107.421 27.5932 107.099 27.7773C106.777 27.9614 106.52 28.2298 106.328 28.5826C106.137 28.9353 106.041 29.3495 106.041 29.825C106.041 30.3081 106.137 30.7299 106.328 31.0904C106.52 31.4432 106.777 31.7154 107.099 31.9071C107.421 32.0912 107.778 32.1832 108.169 32.1832C108.56 32.1832 108.917 32.0912 109.239 31.9071C109.569 31.7154 109.829 31.4432 110.021 31.0904C110.213 30.7299 110.309 30.312 110.309 29.8365ZM112.745 29.825C112.745 29.1808 112.875 28.6171 113.136 28.1339C113.397 27.6431 113.753 27.2635 114.206 26.995C114.666 26.7266 115.18 26.5924 115.747 26.5924C116.238 26.5924 116.695 26.7074 117.116 26.9375C117.538 27.1599 117.86 27.4552 118.083 27.8233V24.4872H119.141V33H118.083V31.8151C117.876 32.1909 117.569 32.5015 117.162 32.7469C116.756 32.9847 116.28 33.1035 115.736 33.1035C115.176 33.1035 114.666 32.9655 114.206 32.6894C113.753 32.4133 113.397 32.026 113.136 31.5275C112.875 31.029 112.745 30.4615 112.745 29.825ZM118.083 29.8365C118.083 29.361 117.987 28.9468 117.795 28.5941C117.603 28.2413 117.343 27.9729 117.013 27.7888C116.691 27.5971 116.334 27.5012 115.943 27.5012C115.552 27.5012 115.195 27.5932 114.873 27.7773C114.551 27.9614 114.294 28.2298 114.102 28.5826C113.911 28.9353 113.815 29.3495 113.815 29.825C113.815 30.3081 113.911 30.7299 114.102 31.0904C114.294 31.4432 114.551 31.7154 114.873 31.9071C115.195 32.0912 115.552 32.1832 115.943 32.1832C116.334 32.1832 116.691 32.0912 117.013 31.9071C117.343 31.7154 117.603 31.4432 117.795 31.0904C117.987 30.7299 118.083 30.312 118.083 29.8365ZM127.612 33.0805C126.868 33.0805 126.19 32.908 125.576 32.5629C124.963 32.2101 124.476 31.7231 124.115 31.1019C123.762 30.473 123.586 29.7674 123.586 28.9852C123.586 28.2029 123.762 27.5012 124.115 26.88C124.476 26.2511 124.963 25.7641 125.576 25.419C126.19 25.0662 126.868 24.8898 127.612 24.8898C128.364 24.8898 129.046 25.0662 129.66 25.419C130.273 25.7641 130.757 26.2473 131.109 26.8685C131.462 27.4897 131.639 28.1953 131.639 28.9852C131.639 29.7751 131.462 30.4807 131.109 31.1019C130.757 31.7231 130.273 32.2101 129.66 32.5629C129.046 32.908 128.364 33.0805 127.612 33.0805ZM127.612 32.1717C128.172 32.1717 128.674 32.0414 129.119 31.7806C129.572 31.5198 129.924 31.1479 130.178 30.6647C130.438 30.1816 130.569 29.6217 130.569 28.9852C130.569 28.341 130.438 27.7811 130.178 27.3056C129.924 26.8225 129.576 26.4505 129.131 26.1898C128.686 25.929 128.18 25.7986 127.612 25.7986C127.045 25.7986 126.539 25.929 126.094 26.1898C125.649 26.4505 125.296 26.8225 125.035 27.3056C124.782 27.7811 124.656 28.341 124.656 28.9852C124.656 29.6217 124.782 30.1816 125.035 30.6647C125.296 31.1479 125.649 31.5198 126.094 31.7806C126.546 32.0414 127.052 32.1717 127.612 32.1717ZM136.092 26.5809C136.859 26.5809 137.48 26.8148 137.956 27.2826C138.431 27.7428 138.669 28.41 138.669 29.2843V33H137.634V29.4338C137.634 28.805 137.476 28.3256 137.162 27.9959C136.847 27.6584 136.418 27.4897 135.873 27.4897C135.321 27.4897 134.88 27.6623 134.551 28.0074C134.228 28.3525 134.067 28.8548 134.067 29.5144V33H133.021V26.6959H134.067V27.5932C134.274 27.2711 134.554 27.0219 134.907 26.8455C135.268 26.6691 135.663 26.5809 136.092 26.5809ZM148.381 24.9819V25.8332H146.195V33H145.148V25.8332H142.951V24.9819H148.381ZM152.799 26.5809C153.274 26.5809 153.704 26.6844 154.087 26.8915C154.47 27.0909 154.77 27.3938 154.984 27.8003C155.207 28.2068 155.318 28.7014 155.318 29.2843V33H154.283V29.4338C154.283 28.805 154.125 28.3256 153.811 27.9959C153.496 27.6584 153.067 27.4897 152.522 27.4897C151.97 27.4897 151.529 27.6623 151.2 28.0074C150.877 28.3525 150.716 28.8548 150.716 29.5144V33H149.67V24.4872H150.716V27.5932C150.923 27.2711 151.207 27.0219 151.568 26.8455C151.936 26.6691 152.346 26.5809 152.799 26.5809ZM162.78 29.6064C162.78 29.8058 162.768 30.0167 162.745 30.2391H157.707C157.745 30.8603 157.956 31.3473 158.339 31.7001C158.73 32.0452 159.202 32.2177 159.754 32.2177C160.207 32.2177 160.583 32.1142 160.882 31.9071C161.188 31.6924 161.403 31.4086 161.526 31.0559H162.653C162.484 31.6617 162.147 32.1564 161.641 32.5398C161.135 32.9156 160.506 33.1035 159.754 33.1035C159.156 33.1035 158.619 32.9693 158.144 32.7009C157.676 32.4325 157.308 32.0529 157.039 31.562C156.771 31.0635 156.637 30.4883 156.637 29.8365C156.637 29.1846 156.767 28.6132 157.028 28.1224C157.289 27.6316 157.653 27.2558 158.121 26.995C158.596 26.7266 159.141 26.5924 159.754 26.5924C160.352 26.5924 160.882 26.7228 161.342 26.9835C161.802 27.2443 162.155 27.6047 162.4 28.0649C162.653 28.5174 162.78 29.0312 162.78 29.6064ZM161.698 29.3878C161.698 28.989 161.61 28.6477 161.434 28.364C161.257 28.0726 161.016 27.854 160.709 27.7083C160.41 27.5549 160.076 27.4782 159.708 27.4782C159.179 27.4782 158.727 27.6469 158.351 27.9844C157.983 28.3218 157.772 28.7896 157.718 29.3878H161.698Z" fill="white"/>
<path d="M41.5277 26C41.7644 28.1399 41.0519 29.9746 39.6442 31.5389C38.5058 32.8038 37.0819 33.5674 35.3389 33.6324C35.2786 33.6347 35.2171 33.6324 35.1347 33.6324C34.9931 32.8966 35.0221 32.176 35.2263 31.4809C36.0688 28.6076 37.979 26.8355 40.865 26.094C41.002 26.0592 41.1412 26.0313 41.2793 26C41.3617 26 41.4441 26 41.5277 26Z" fill="white"/>
<path d="M48.1965 36.653C45.7038 38.1604 44.4308 40.3572 44.671 43.2688C44.9077 46.1421 46.4477 48.1555 49.1353 49.3311C48.8603 49.9113 48.6061 50.4962 48.3102 51.059C47.354 52.8751 46.2562 54.5984 44.8195 56.0803C44.2347 56.6849 43.5802 57.2071 42.7841 57.5181C41.6689 57.9521 40.5943 57.7781 39.5441 57.2883C38.7085 56.8984 37.8579 56.5596 36.9284 56.4656C35.5451 56.3263 34.2361 56.5839 32.9851 57.1769C32.3573 57.4752 31.7075 57.7142 31.0065 57.7607C29.9447 57.8314 29.0187 57.4682 28.1855 56.8334C27.025 55.9492 26.1663 54.8003 25.3713 53.5981C23.7432 51.1367 22.6419 48.4619 22.1975 45.5363C21.8749 43.4081 21.9085 41.296 22.592 39.2246C23.0446 37.8576 23.8279 36.7064 24.8573 35.7211C25.8332 34.787 26.9577 34.0884 28.2632 33.7019C29.7486 33.261 31.205 33.4316 32.6463 33.9155C33.3507 34.1522 34.0504 34.4052 34.7641 34.6094C35.9548 34.9506 37.1117 34.7789 38.2478 34.3298C39.2087 33.9491 40.1823 33.6126 41.2186 33.4907C43.0742 33.2737 44.736 33.7785 46.2539 34.8206C46.9896 35.3266 47.636 35.9335 48.1965 36.653Z" fill="white"/>
<defs>
<linearGradient id="paint0_linear_1_59" x1="18.646" y1="23.9647" x2="222.412" y2="108.152" gradientUnits="userSpaceOnUse">
<stop stop-color="#3006A4"/>
<stop offset="1" stop-color="#FFA37B"/>
</linearGradient>
<linearGradient id="paint1_linear_1_59" x1="63.6553" y1="59.2" x2="157.319" y2="103.473" gradientUnits="userSpaceOnUse">
<stop stop-color="#836DD6"/>
<stop offset="1" stop-color="#FFA37B"/>
</linearGradient>
</defs>
</svg>
