<svg width="50" height="50" viewBox="0 0 50 50" fill="none" xmlns="http://www.w3.org/2000/svg">
<g filter="url(#filter0_i_1_33)">
<circle cx="25" cy="25" r="25" fill="#F7931A"/>
</g>
<path fill-rule="evenodd" clip-rule="evenodd" d="M21.25 15H28.75C32.2013 15 35 17.7988 35 21.25V28.75C35 32.2013 32.2013 35 28.75 35H21.25C17.7988 35 15 32.2013 15 28.75V21.25C15 17.7988 17.7988 15 21.25 15ZM28.75 33.125C31.1625 33.125 33.125 31.1625 33.125 28.75V21.25C33.125 18.8375 31.1625 16.875 28.75 16.875H21.25C18.8375 16.875 16.875 18.8375 16.875 21.25V28.75C16.875 31.1625 18.8375 33.125 21.25 33.125H28.75Z" fill="white"/>
<path fill-rule="evenodd" clip-rule="evenodd" d="M20.3828 25C20.3828 22.2387 22.6216 20 25.3828 20C28.1441 20 30.3828 22.2387 30.3828 25C30.3828 27.7613 28.1441 30 25.3828 30C22.6216 30 20.3828 27.7613 20.3828 25ZM22.2578 25C22.2578 26.7225 23.6603 28.125 25.3828 28.125C27.1053 28.125 28.5078 26.7225 28.5078 25C28.5078 23.2763 27.1053 21.875 25.3828 21.875C23.6603 21.875 22.2578 23.2763 22.2578 25Z" fill="white"/>
<defs>
<filter id="filter0_i_1_33" x="0" y="0" width="54" height="54" filterUnits="userSpaceOnUse" color-interpolation-filters="sRGB">
<feFlood flood-opacity="0" result="BackgroundImageFix"/>
<feBlend mode="normal" in="SourceGraphic" in2="BackgroundImageFix" result="shape"/>
<feColorMatrix in="SourceAlpha" type="matrix" values="0 0 0 0 0 0 0 0 0 0 0 0 0 0 0 0 0 0 127 0" result="hardAlpha"/>
<feOffset dx="5" dy="5"/>
<feGaussianBlur stdDeviation="2"/>
<feComposite in2="hardAlpha" operator="arithmetic" k2="-1" k3="1"/>
<feColorMatrix type="matrix" values="0 0 0 0 0 0 0 0 0 0 0 0 0 0 0 0 0 0 0.25 0"/>
<feBlend mode="normal" in2="shape" result="effect1_innerShadow_1_33"/>
</filter>
</defs>
</svg>
