<svg width="152" height="185" viewBox="0 0 152 185" fill="none" xmlns="http://www.w3.org/2000/svg">
<g clip-path="url(#clip0_1_287)">
<path d="M140.304 100.551C140.292 100.682 140.276 100.812 140.257 100.942L138.576 105.833C136.527 109.614 132.857 113.332 128.347 116.835C120.198 102.003 96.7188 87.1902 96.7188 87.1902L111.727 67.4648C111.727 67.4648 142.233 80.9995 140.305 100.551H140.304Z" fill="url(#paint0_linear_1_287)"/>
<path d="M138.312 101.956C138.3 102.086 138.284 102.216 138.265 102.347L136.584 107.238C134.535 111.018 130.865 114.736 126.355 118.239C118.206 103.407 94.7266 88.5945 94.7266 88.5945L109.735 68.8691C109.735 68.8691 140.241 82.4037 138.313 101.956H138.312Z" fill="url(#paint1_linear_1_287)"/>
<path d="M100.106 128.438C99.7337 128.635 99.3575 128.828 98.9762 129.017C98.7817 129.114 98.5854 129.209 98.3883 129.303C98.0096 129.484 97.6257 129.661 97.2392 129.835C97.0533 129.918 96.8691 130.003 96.6815 130.084C96.4095 130.202 96.1315 130.314 95.8569 130.429C95.4463 130.599 95.0349 130.768 94.6174 130.93C94.3368 131.039 94.0528 131.143 93.7687 131.248C93.3608 131.399 92.951 131.546 92.537 131.689C92.2074 131.803 91.876 131.914 91.542 132.022C91.264 132.112 90.9851 132.202 90.7045 132.289C90.3344 132.403 89.9617 132.514 89.5882 132.622C89.3093 132.704 89.0304 132.785 88.7489 132.862C88.2962 132.986 87.8409 133.105 87.3829 133.221C87.2117 133.264 87.0421 133.309 86.8708 133.352C86.233 133.508 85.5909 133.656 84.9436 133.794C84.8386 133.816 84.7327 133.836 84.6277 133.858C84.0941 133.97 83.5578 134.076 83.019 134.176C82.8176 134.213 82.6145 134.249 82.4122 134.285C81.9233 134.371 81.4335 134.453 80.9412 134.53C80.7794 134.555 80.6193 134.582 80.4575 134.606C79.8154 134.702 79.1707 134.79 78.5234 134.871C78.4055 134.885 78.2867 134.897 78.1688 134.911C77.6274 134.975 77.0851 135.034 76.5411 135.087C76.3569 135.105 76.1736 135.122 75.9894 135.139C75.6873 135.166 75.3834 135.187 75.0804 135.211C74.3462 135.269 73.6103 135.316 72.8735 135.352C72.6454 135.364 72.4182 135.378 72.1901 135.388C71.2614 135.427 70.3318 135.451 69.4013 135.457C69.2249 135.458 69.0493 135.454 68.8728 135.454C68.0594 135.454 67.2469 135.441 66.4343 135.417C66.1968 135.41 65.9584 135.403 65.7208 135.395C64.7258 135.356 63.7334 135.301 62.7435 135.225C62.11 135.176 61.4774 135.121 60.8473 135.057C60.8232 135.055 60.7982 135.053 60.7741 135.05C60.1028 134.981 59.434 134.901 58.7678 134.815C58.4527 134.774 58.1394 134.726 57.8253 134.682C57.4319 134.626 57.0385 134.57 56.6469 134.508C56.3276 134.457 56.0108 134.4 55.6924 134.345C55.3222 134.281 54.9521 134.218 54.5837 134.148C53.8271 134.006 53.0749 133.852 52.3295 133.687C52.289 133.678 52.2486 133.67 52.2081 133.662C51.424 133.486 50.6476 133.293 49.8781 133.09C49.39 132.962 48.9063 132.827 48.4252 132.689C48.2909 132.65 48.1549 132.615 48.0206 132.575C47.394 132.39 46.7734 132.195 46.1588 131.992C45.9901 131.937 45.8249 131.877 45.6579 131.82C45.212 131.668 44.7679 131.514 44.3298 131.353C44.1094 131.273 43.8934 131.188 43.6756 131.105C43.2917 130.958 42.9096 130.81 42.5317 130.656C42.3045 130.563 42.0798 130.469 41.8552 130.374C41.4859 130.218 41.1201 130.057 40.7577 129.894C40.5417 129.797 40.3256 129.7 40.1122 129.601C39.7283 129.421 39.3496 129.236 38.9734 129.048C38.7927 128.958 38.6102 128.871 38.432 128.778C37.8837 128.496 37.3415 128.206 36.8112 127.906C36.3017 127.618 35.8111 127.321 35.3291 127.023C35.2025 126.944 35.0777 126.866 34.9538 126.786C34.5286 126.516 34.112 126.243 33.7091 125.965C33.6592 125.93 33.6067 125.897 33.5577 125.863C33.1084 125.55 32.6763 125.231 32.2562 124.908C32.1727 124.844 32.0901 124.78 32.0075 124.716C31.6003 124.398 31.2035 124.077 30.824 123.751C30.7844 123.716 30.7474 123.683 30.7078 123.648C30.3471 123.336 30.0002 123.019 29.6654 122.7C29.6112 122.648 29.5552 122.597 29.5019 122.545C29.2359 122.287 28.9854 122.026 28.7358 121.764C28.6222 121.646 28.5017 121.529 28.3915 121.409C28.0446 121.032 27.7141 120.652 27.4008 120.269C27.3896 120.255 27.3793 120.24 27.3681 120.226C27.0823 119.874 26.8121 119.519 26.5538 119.16C26.4678 119.04 26.3877 118.92 26.3042 118.799C26.1235 118.537 25.947 118.275 25.7809 118.011C25.7069 117.892 25.6337 117.773 25.5623 117.655C25.3944 117.376 25.2352 117.094 25.0829 116.812C25.0303 116.714 24.9744 116.617 24.9245 116.518C24.7343 116.149 24.5569 115.778 24.3943 115.405C24.3598 115.326 24.3297 115.246 24.297 115.167C24.1687 114.861 24.05 114.554 23.9407 114.246C23.9036 114.141 23.8666 114.035 23.8313 113.929C23.7126 113.573 23.6032 113.216 23.5103 112.856C23.5043 112.832 23.4957 112.809 23.4896 112.785C23.3924 112.404 23.3132 112.023 23.2443 111.641C23.2254 111.539 23.209 111.435 23.1927 111.332C23.1419 111.02 23.1006 110.707 23.0696 110.393C23.061 110.312 23.0507 110.231 23.0438 110.15C23.0093 109.741 22.9878 109.332 22.9844 108.922L23.0679 121.398C23.0679 121.467 23.0696 121.536 23.0704 121.605C23.0773 121.945 23.098 122.286 23.1264 122.626C23.1333 122.707 23.1445 122.788 23.1531 122.87C23.172 123.059 23.1884 123.249 23.2142 123.438C23.2314 123.561 23.2564 123.685 23.2762 123.809C23.2925 123.912 23.3089 124.015 23.3278 124.118C23.3958 124.494 23.4733 124.87 23.5688 125.245C23.5705 125.251 23.5723 125.256 23.5731 125.261C23.5791 125.285 23.5869 125.309 23.5938 125.332C23.6876 125.691 23.7969 126.048 23.9157 126.405C23.951 126.51 23.988 126.616 24.025 126.722C24.0637 126.831 24.0982 126.942 24.1386 127.05C24.2135 127.248 24.2979 127.445 24.3805 127.642C24.4141 127.721 24.4433 127.801 24.4786 127.881C24.6241 128.215 24.7782 128.548 24.946 128.879C24.9649 128.917 24.9882 128.955 25.008 128.993C25.0588 129.092 25.1147 129.189 25.1672 129.287C25.3187 129.569 25.4779 129.849 25.6458 130.129C25.7172 130.248 25.7904 130.366 25.8644 130.485C25.9221 130.578 25.9746 130.67 26.034 130.762C26.1459 130.933 26.2689 131.103 26.3869 131.273C26.4704 131.393 26.5504 131.515 26.6373 131.635C26.8956 131.992 27.165 132.348 27.4507 132.7C27.4619 132.715 27.4723 132.729 27.4834 132.743C27.4852 132.745 27.486 132.747 27.4877 132.748C27.8002 133.131 28.1307 133.51 28.4759 133.884C28.5852 134.003 28.7057 134.12 28.8184 134.237C29.0379 134.467 29.2531 134.698 29.4855 134.925C29.5182 134.957 29.5527 134.988 29.5854 135.019C29.6396 135.072 29.6955 135.123 29.7506 135.175C30.0855 135.495 30.4323 135.811 30.7921 136.123C30.8317 136.158 30.8687 136.191 30.9083 136.226C31.2879 136.552 31.6847 136.873 32.0927 137.192C32.1745 137.255 32.2562 137.319 32.3397 137.383C32.4258 137.449 32.5076 137.515 32.5945 137.581C32.9345 137.836 33.2839 138.088 33.642 138.338C33.6919 138.372 33.7436 138.406 33.7935 138.44C34.1963 138.718 34.6129 138.991 35.039 139.262C35.1629 139.341 35.2877 139.42 35.4134 139.498C35.8954 139.796 36.386 140.092 36.8956 140.381C37.4258 140.682 37.9681 140.971 38.5164 141.254C38.6945 141.345 38.877 141.433 39.0578 141.523C39.4339 141.711 39.8126 141.897 40.1974 142.076C40.4117 142.177 40.6277 142.273 40.8438 142.371C41.2062 142.534 41.572 142.694 41.9412 142.851C42.165 142.946 42.3905 143.04 42.6169 143.132C42.9956 143.286 43.3787 143.436 43.7634 143.583C43.9803 143.665 44.1964 143.749 44.415 143.829C44.854 143.991 45.299 144.145 45.7457 144.297C45.9127 144.354 46.0779 144.415 46.2458 144.47C46.8603 144.673 47.4809 144.868 48.1084 145.052C48.2401 145.091 48.3752 145.127 48.5078 145.165C48.9287 145.286 49.3505 145.408 49.7765 145.521C49.8385 145.537 49.903 145.551 49.965 145.568C50.7345 145.77 51.5109 145.962 52.295 146.139C52.3355 146.148 52.3759 146.155 52.4155 146.164C53.1618 146.331 53.9141 146.483 54.6707 146.627C54.743 146.64 54.8127 146.657 54.8841 146.671C55.1794 146.725 55.4789 146.772 55.7758 146.822C56.0943 146.878 56.4119 146.935 56.7321 146.986C57.1229 147.048 57.5171 147.102 57.9105 147.159C58.2246 147.204 58.538 147.251 58.853 147.292C58.9115 147.3 58.9692 147.309 59.0277 147.317C59.6362 147.395 60.2465 147.465 60.8594 147.528C60.8835 147.53 60.9076 147.532 60.9325 147.535C61.5152 147.594 62.0997 147.648 62.6858 147.694C62.7332 147.698 62.7814 147.698 62.8287 147.702C63.8177 147.778 64.811 147.833 65.806 147.872C65.9015 147.875 65.9962 147.885 66.0918 147.888C66.2338 147.894 66.3767 147.891 66.5196 147.895C67.3321 147.919 68.1446 147.932 68.958 147.932C69.0863 147.932 69.2137 147.939 69.341 147.938C69.3893 147.938 69.4375 147.935 69.4857 147.935C70.4161 147.929 71.3457 147.905 72.2753 147.866C72.351 147.862 72.4268 147.863 72.5017 147.86C72.654 147.853 72.8047 147.838 72.957 147.831C73.6947 147.793 74.4306 147.746 75.1657 147.688C75.3171 147.676 75.4704 147.672 75.6218 147.659C75.7725 147.646 75.9231 147.629 76.0737 147.617C76.2579 147.599 76.4421 147.582 76.6263 147.564C77.1694 147.511 77.7109 147.453 78.2514 147.389C78.3702 147.375 78.4898 147.363 78.6095 147.348C78.6516 147.343 78.6938 147.339 78.7351 147.333C79.3402 147.257 79.9419 147.173 80.5418 147.083C80.7036 147.059 80.8654 147.032 81.0264 147.006C81.3113 146.962 81.5962 146.92 81.8794 146.873C82.086 146.838 82.29 146.798 82.4957 146.761C82.6988 146.726 82.9011 146.69 83.1034 146.652C83.6422 146.552 84.1776 146.446 84.7112 146.335C84.8162 146.312 84.923 146.293 85.028 146.27C85.0547 146.264 85.0822 146.259 85.1089 146.254C85.7286 146.12 86.344 145.978 86.9552 145.827C87.1264 145.786 87.296 145.74 87.4664 145.697C87.8133 145.61 88.161 145.524 88.5045 145.432C88.6147 145.402 88.7223 145.369 88.8316 145.338C89.1139 145.26 89.3928 145.179 89.6725 145.098C90.0452 144.99 90.417 144.881 90.7863 144.766C91.0677 144.679 91.3475 144.589 91.6264 144.498C91.8218 144.435 92.0197 144.376 92.2134 144.311C92.3511 144.265 92.4837 144.213 92.6214 144.165C93.0354 144.023 93.4442 143.875 93.8522 143.724C94.1363 143.619 94.4212 143.514 94.7018 143.406C95.1192 143.243 95.5307 143.075 95.9412 142.904C96.1349 142.824 96.3346 142.75 96.5266 142.668C96.6075 142.633 96.6858 142.595 96.7667 142.561C96.9543 142.48 97.1385 142.394 97.3245 142.311C97.7109 142.138 98.0939 141.961 98.4727 141.78C98.6698 141.686 98.866 141.591 99.0605 141.494C99.4419 141.306 99.818 141.112 100.191 140.915C100.36 140.826 100.531 140.739 100.698 140.647C101.229 140.359 101.753 140.064 102.266 139.759C111.154 134.466 115.563 127.607 115.517 120.781L115.433 108.305C115.479 115.131 111.07 121.989 102.182 127.283C101.669 127.588 101.145 127.882 100.614 128.171C100.447 128.261 100.276 128.349 100.107 128.438H100.106Z" fill="url(#paint2_linear_1_287)"/>
<path d="M36.8113 127.908C18.6025 117.598 18.3451 100.601 36.2364 89.945C54.1276 79.2887 83.3935 79.0082 101.603 89.3184C119.816 99.6304 120.074 116.628 102.182 127.284C84.2904 137.94 55.0236 138.221 36.8113 127.909V127.908Z" fill="url(#paint3_linear_1_287)"/>
<path d="M34.5961 110.278C35.919 106.641 38.9833 103.164 43.7974 100.295C57.2309 92.2942 79.2089 92.0827 92.8834 99.8253C99.1349 103.364 102.569 107.949 103.169 112.654C105.541 106.133 102.319 99.0951 93.5384 94.1247C79.8648 86.3822 57.8867 86.5936 44.4507 94.5951C37.1551 98.9389 33.8782 104.69 34.5969 110.278H34.5961Z" fill="url(#paint4_linear_1_287)"/>
<path d="M43.7942 100.294C57.2277 92.2929 79.2057 92.0815 92.8802 99.824C99.1318 103.363 102.566 107.948 103.166 112.653C101.845 116.292 98.7797 119.767 93.9699 122.633C80.5338 130.635 58.5558 130.846 44.8804 123.101C38.6289 119.562 35.1945 114.977 34.5938 110.277C35.9167 106.64 38.9809 103.162 43.795 100.294H43.7942Z" fill="url(#paint5_linear_1_287)"/>
<path d="M80.4825 106.071C83.8152 107.318 85.6426 108.518 85.9645 109.673C86.2864 110.827 85.7708 111.805 84.416 112.606C81.2632 114.472 76.0411 114.608 68.7524 113.013L61.9586 117.033C65.1958 117.932 68.112 118.009 70.7071 117.264L73.1989 118.686C69.2309 119.717 64.7861 119.58 59.8635 118.272L57.2443 119.822L54.3617 118.91L56.9809 117.36C51.7769 115.118 50.7087 113.089 53.7781 111.273C54.9427 110.584 56.5471 110.131 58.5948 109.914C60.6416 109.696 63.7971 109.993 68.0603 110.803L75.4257 106.445C71.8484 105.486 68.3289 105.473 64.867 106.405L62.5181 104.898C66.9302 103.632 71.9569 103.719 77.5999 105.158L80.6632 103.346L83.5458 104.258L80.4825 106.071ZM65.5995 112.26C61.5833 111.404 58.6998 111.493 56.9499 112.53C56.0591 113.057 55.806 113.646 56.1916 114.298C56.5773 114.95 57.5387 115.557 59.076 116.121L65.5995 112.26ZM71.3716 111.463C75.8173 112.524 79.0184 112.474 80.9757 111.316C81.8967 110.772 82.1471 110.135 81.7288 109.406C81.3096 108.678 80.17 107.995 78.3083 107.358L71.3716 111.463Z" fill="white"/>
<path d="M100.106 114.14C99.7337 114.337 99.3575 114.53 98.9762 114.719C98.7817 114.816 98.5854 114.911 98.3883 115.005C98.0096 115.186 97.6257 115.363 97.2392 115.537C97.0533 115.62 96.8691 115.705 96.6815 115.786C96.4095 115.904 96.1315 116.016 95.8569 116.131C95.4463 116.301 95.0349 116.47 94.6174 116.632C94.3368 116.741 94.0528 116.845 93.7687 116.95C93.3608 117.101 92.951 117.248 92.537 117.391C92.2074 117.505 91.876 117.616 91.542 117.724C91.264 117.814 90.9851 117.904 90.7045 117.991C90.3344 118.105 89.9617 118.216 89.5882 118.324C89.3093 118.406 89.0304 118.487 88.7489 118.563C88.2962 118.688 87.8409 118.807 87.3829 118.923C87.2117 118.966 87.0421 119.011 86.8708 119.054C86.233 119.21 85.5909 119.358 84.9436 119.496C84.8386 119.518 84.7327 119.538 84.6277 119.56C84.0941 119.672 83.5578 119.778 83.019 119.878C82.8176 119.915 82.6145 119.951 82.4122 119.987C81.9233 120.073 81.4335 120.155 80.9412 120.232C80.7794 120.257 80.6193 120.284 80.4575 120.308C79.8154 120.404 79.1707 120.492 78.5234 120.573C78.4055 120.587 78.2867 120.599 78.1688 120.613C77.6274 120.677 77.0851 120.736 76.5411 120.788C76.3569 120.807 76.1736 120.824 75.9894 120.841C75.6873 120.868 75.3834 120.889 75.0804 120.913C74.3462 120.971 73.6103 121.018 72.8735 121.054C72.6454 121.066 72.4182 121.08 72.1901 121.09C71.2614 121.129 70.3318 121.153 69.4013 121.159C69.2249 121.16 69.0493 121.156 68.8728 121.156C68.0594 121.156 67.2469 121.143 66.4343 121.119C66.1968 121.112 65.9584 121.105 65.7208 121.097C64.7258 121.058 63.7334 121.003 62.7435 120.927C62.11 120.878 61.4774 120.823 60.8473 120.759C60.8232 120.757 60.7982 120.755 60.7741 120.752C60.1028 120.683 59.434 120.603 58.7678 120.517C58.4527 120.476 58.1394 120.428 57.8253 120.384C57.4319 120.328 57.0385 120.272 56.6469 120.21C56.3276 120.159 56.0108 120.102 55.6924 120.047C55.3222 119.983 54.9521 119.92 54.5837 119.85C53.8271 119.708 53.0749 119.554 52.3295 119.389C52.289 119.38 52.2486 119.372 52.2081 119.364C51.424 119.187 50.6476 118.995 49.8781 118.792C49.39 118.664 48.9063 118.529 48.4252 118.391C48.2909 118.352 48.1549 118.317 48.0206 118.277C47.394 118.092 46.7734 117.897 46.1588 117.694C45.9901 117.639 45.8249 117.579 45.6579 117.522C45.212 117.37 44.7679 117.216 44.3298 117.055C44.1094 116.975 43.8934 116.89 43.6756 116.807C43.2917 116.66 42.9096 116.512 42.5317 116.357C42.3045 116.265 42.0798 116.171 41.8552 116.076C41.4859 115.92 41.1201 115.759 40.7577 115.596C40.5417 115.499 40.3256 115.402 40.1122 115.303C39.7283 115.123 39.3496 114.938 38.9734 114.75C38.7927 114.66 38.6102 114.573 38.432 114.48C37.8837 114.198 37.3415 113.908 36.8112 113.608C36.3017 113.32 35.8111 113.023 35.3291 112.725C35.2025 112.646 35.0777 112.568 34.9538 112.488C34.5286 112.218 34.112 111.945 33.7091 111.667C33.6592 111.632 33.6067 111.599 33.5577 111.565C33.1084 111.252 32.6763 110.933 32.2562 110.61C32.1727 110.546 32.0901 110.482 32.0075 110.418C31.6003 110.1 31.2035 109.779 30.824 109.453C30.7844 109.418 30.7474 109.385 30.7078 109.35C30.3471 109.038 30.0002 108.721 29.6654 108.402C29.6112 108.35 29.5552 108.299 29.5019 108.247C29.2359 107.989 28.9854 107.728 28.7358 107.466C28.6222 107.348 28.5017 107.231 28.3915 107.111C28.0446 106.734 27.7141 106.354 27.4008 105.97C27.3896 105.957 27.3793 105.942 27.3681 105.928C27.0823 105.576 26.8121 105.22 26.5538 104.862C26.4678 104.742 26.3877 104.621 26.3042 104.501C26.1235 104.239 25.947 103.977 25.7809 103.713C25.7069 103.594 25.6337 103.475 25.5623 103.357C25.3944 103.077 25.2352 102.796 25.0829 102.514C25.0303 102.416 24.9744 102.319 24.9245 102.22C24.7343 101.851 24.5569 101.48 24.3943 101.107C24.3598 101.028 24.3297 100.948 24.297 100.869C24.1687 100.563 24.05 100.256 23.9407 99.948C23.9036 99.8427 23.8666 99.7374 23.8313 99.6313C23.7126 99.2748 23.6032 98.9175 23.5103 98.5585C23.5043 98.5343 23.4957 98.511 23.4896 98.4868C23.3924 98.1062 23.3132 97.7248 23.2443 97.3433C23.2254 97.2406 23.209 97.137 23.1927 97.0343C23.1419 96.7219 23.1006 96.4086 23.0696 96.0953C23.061 96.0142 23.0507 95.933 23.0438 95.8519C23.0093 95.4428 22.9878 95.0337 22.9844 94.6238L23.0679 107.1C23.0679 107.169 23.0696 107.238 23.0704 107.307C23.0773 107.647 23.098 107.987 23.1264 108.328C23.1333 108.409 23.1445 108.49 23.1531 108.572C23.172 108.761 23.1884 108.951 23.2142 109.14C23.2314 109.263 23.2564 109.387 23.2762 109.51C23.2925 109.613 23.3089 109.716 23.3278 109.819C23.3958 110.195 23.4733 110.571 23.5688 110.946C23.5705 110.952 23.5723 110.957 23.5731 110.962C23.5791 110.986 23.5869 111.01 23.5938 111.033C23.6876 111.392 23.7969 111.75 23.9157 112.106C23.951 112.211 23.988 112.317 24.025 112.423C24.0637 112.532 24.0982 112.643 24.1386 112.752C24.2135 112.949 24.2979 113.146 24.3805 113.343C24.4141 113.422 24.4433 113.502 24.4786 113.582C24.6241 113.916 24.7782 114.249 24.946 114.58C24.9649 114.618 24.9882 114.656 25.008 114.694C25.0588 114.793 25.1147 114.89 25.1672 114.988C25.3187 115.27 25.4779 115.551 25.6458 115.83C25.7172 115.949 25.7904 116.068 25.8644 116.186C25.9221 116.278 25.9746 116.37 26.034 116.462C26.1459 116.634 26.2689 116.803 26.3869 116.973C26.4704 117.094 26.5504 117.215 26.6373 117.335C26.8956 117.693 27.165 118.048 27.4507 118.4C27.4619 118.415 27.4723 118.429 27.4834 118.444C27.4852 118.445 27.486 118.447 27.4877 118.449C27.8002 118.831 28.1307 119.21 28.4759 119.585C28.5852 119.704 28.7057 119.82 28.8184 119.937C29.0379 120.167 29.2531 120.398 29.4855 120.625C29.5182 120.657 29.5527 120.688 29.5854 120.719C29.6396 120.772 29.6955 120.823 29.7506 120.876C30.0855 121.195 30.4323 121.511 30.7921 121.823C30.8317 121.858 30.8687 121.891 30.9083 121.926C31.2879 122.252 31.6847 122.573 32.0927 122.892C32.1745 122.956 32.2562 123.02 32.3397 123.083C32.4258 123.149 32.5076 123.215 32.5945 123.281C32.9345 123.536 33.2839 123.788 33.642 124.038C33.6919 124.072 33.7436 124.106 33.7935 124.14C34.1963 124.419 34.6129 124.691 35.039 124.962C35.1629 125.042 35.2877 125.12 35.4134 125.198C35.8954 125.497 36.386 125.793 36.8956 126.082C37.4258 126.382 37.9681 126.671 38.5164 126.954C38.6945 127.046 38.877 127.133 39.0578 127.223C39.4339 127.412 39.8126 127.597 40.1974 127.777C40.4117 127.877 40.6277 127.974 40.8438 128.071C41.2062 128.234 41.572 128.395 41.9412 128.551C42.165 128.646 42.3905 128.74 42.6169 128.832C42.9956 128.987 43.3787 129.136 43.7634 129.283C43.9803 129.366 44.1964 129.449 44.415 129.53C44.854 129.691 45.299 129.845 45.7457 129.997C45.9127 130.054 46.0779 130.115 46.2458 130.17C46.8603 130.373 47.4809 130.568 48.1084 130.753C48.2401 130.791 48.3752 130.827 48.5078 130.865C48.9287 130.986 49.3505 131.108 49.7765 131.221C49.8385 131.238 49.903 131.251 49.965 131.268C50.7345 131.471 51.5109 131.662 52.295 131.839C52.3355 131.849 52.3759 131.856 52.4155 131.864C53.1618 132.031 53.9141 132.184 54.6707 132.327C54.743 132.341 54.8127 132.357 54.8841 132.371C55.1794 132.425 55.4789 132.472 55.7758 132.523C56.0943 132.578 56.4119 132.635 56.7321 132.686C57.1229 132.748 57.5171 132.802 57.9105 132.859C58.2246 132.904 58.538 132.952 58.853 132.992C58.9115 133 58.9692 133.009 59.0277 133.017C59.6362 133.095 60.2465 133.165 60.8594 133.228C60.8835 133.23 60.9076 133.232 60.9325 133.235C61.5152 133.294 62.0997 133.348 62.6858 133.394C62.7332 133.398 62.7814 133.399 62.8287 133.402C63.8177 133.478 64.811 133.533 65.806 133.572C65.9015 133.576 65.9962 133.585 66.0918 133.589C66.2338 133.594 66.3767 133.591 66.5196 133.596C67.3321 133.62 68.1446 133.633 68.958 133.633C69.0863 133.633 69.2137 133.64 69.341 133.639C69.3893 133.639 69.4375 133.635 69.4857 133.635C70.4161 133.629 71.3457 133.605 72.2753 133.566C72.351 133.563 72.4268 133.564 72.5017 133.56C72.654 133.553 72.8047 133.539 72.957 133.531C73.6947 133.494 74.4306 133.446 75.1657 133.388C75.3171 133.376 75.4704 133.372 75.6218 133.359C75.7725 133.346 75.9231 133.33 76.0737 133.317C76.2579 133.3 76.4421 133.282 76.6263 133.265C77.1694 133.212 77.7109 133.154 78.2514 133.09C78.3702 133.076 78.4898 133.064 78.6095 133.049C78.6516 133.044 78.6938 133.04 78.7351 133.035C79.3402 132.959 79.9419 132.874 80.5418 132.784C80.7036 132.76 80.8654 132.733 81.0264 132.707C81.3113 132.663 81.5962 132.621 81.8794 132.574C82.086 132.539 82.29 132.499 82.4957 132.462C82.6988 132.427 82.9011 132.391 83.1034 132.354C83.6422 132.253 84.1776 132.147 84.7112 132.036C84.8162 132.014 84.923 131.994 85.028 131.971C85.0547 131.965 85.0822 131.96 85.1089 131.955C85.7286 131.821 86.344 131.679 86.9552 131.528C87.1264 131.487 87.296 131.441 87.4664 131.398C87.8133 131.31 88.161 131.226 88.5045 131.133C88.6147 131.103 88.7223 131.07 88.8316 131.039C89.1139 130.961 89.3928 130.88 89.6725 130.799C90.0452 130.691 90.417 130.582 90.7863 130.467C91.0677 130.38 91.3475 130.29 91.6264 130.199C91.8218 130.136 92.0197 130.077 92.2134 130.012C92.3511 129.966 92.4837 129.914 92.6214 129.866C93.0354 129.724 93.4442 129.576 93.8522 129.425C94.1363 129.32 94.4212 129.215 94.7018 129.107C95.1192 128.944 95.5307 128.776 95.9412 128.605C96.1349 128.525 96.3346 128.451 96.5266 128.369C96.6075 128.334 96.6858 128.296 96.7667 128.262C96.9543 128.181 97.1385 128.095 97.3245 128.012C97.7109 127.839 98.0939 127.662 98.4727 127.481C98.6698 127.387 98.866 127.292 99.0605 127.195C99.4419 127.007 99.818 126.813 100.191 126.616C100.36 126.527 100.531 126.44 100.698 126.348C101.229 126.06 101.753 125.765 102.266 125.46C111.154 120.167 115.563 113.308 115.517 106.482L115.433 94.0058C115.479 100.832 111.07 107.691 102.182 112.984C101.669 113.289 101.145 113.584 100.614 113.872C100.447 113.962 100.276 114.051 100.107 114.139L100.106 114.14Z" fill="url(#paint6_linear_1_287)"/>
<path d="M36.8113 113.609C18.6025 103.299 18.3451 86.3024 36.2364 75.6461C54.1276 64.9899 83.3935 64.7094 101.603 75.0195C119.816 85.3315 120.074 102.329 102.182 112.985C84.2904 123.641 55.0236 123.922 36.8113 113.61V113.609Z" fill="url(#paint7_linear_1_287)"/>
<path d="M34.5961 95.979C35.919 92.342 38.9833 88.8647 43.7974 85.9959C57.2309 77.9953 79.2089 77.7838 92.8834 85.5264C99.1349 89.065 102.569 93.6504 103.169 98.355C105.541 91.8345 102.319 84.7962 93.5384 79.8258C79.8648 72.0833 57.8867 72.2947 44.4507 80.2962C37.1551 84.64 33.8782 90.3906 34.5969 95.979H34.5961Z" fill="url(#paint8_linear_1_287)"/>
<path d="M43.7942 85.9947C57.2277 77.994 79.2057 77.7826 92.8802 85.5252C99.1318 89.0637 102.566 93.6492 103.166 98.3538C101.845 101.993 98.7797 105.468 93.9699 108.334C80.5338 116.336 58.5558 116.547 44.8804 108.802C38.6289 105.264 35.1945 100.678 34.5938 95.9778C35.9167 92.3408 38.9809 88.8635 43.795 85.9947H43.7942Z" fill="url(#paint9_linear_1_287)"/>
<path d="M80.4825 91.7724C83.8152 93.0186 85.6426 94.2192 85.9645 95.374C86.2864 96.5279 85.7708 97.5057 84.416 98.3075C81.2632 100.173 76.0411 100.309 68.7524 98.714L61.9586 102.734C65.1958 103.633 68.112 103.71 70.7071 102.965L73.1989 104.387C69.2309 105.418 64.7861 105.281 59.8635 103.974L57.2443 105.524L54.3617 104.611L56.9809 103.061C51.7769 100.819 50.7087 98.79 53.7781 96.9741C54.9427 96.2853 56.5471 95.8322 58.5948 95.6147C60.6416 95.3973 63.7971 95.6942 68.0603 96.5046L75.4257 92.1461C71.8484 91.1872 68.3289 91.1743 64.867 92.1064L62.5181 90.5995C66.9302 89.3334 71.9569 89.4197 77.5999 90.8593L80.6632 89.0468L83.5458 89.9591L80.4825 91.7715V91.7724ZM65.5995 97.9614C61.5833 97.1053 58.6998 97.195 56.9499 98.2307C56.0591 98.758 55.806 99.3475 56.1916 99.9991C56.5773 100.651 57.5387 101.258 59.076 101.822L65.5995 97.9614ZM71.3716 97.164C75.8173 98.2247 79.0184 98.1755 80.9757 97.0172C81.8967 96.4726 82.1471 95.8357 81.7288 95.1073C81.3096 94.3788 80.17 93.6962 78.3083 93.0592L71.3716 97.164Z" fill="white"/>
<path d="M103.829 76.3749C119.028 86.7783 118.284 102.445 101.428 112.484C83.5365 123.14 54.2697 123.421 36.0574 113.109C35.281 112.669 34.54 112.216 33.8281 111.754C34.762 112.393 35.7536 113.013 36.808 113.61C55.0203 123.922 84.2871 123.642 102.178 112.985C119.307 102.784 119.798 86.7714 103.829 76.3758V76.3749Z" fill="url(#paint10_linear_1_287)"/>
<path d="M40.6419 78.464C40.6669 77.9557 40.697 77.4465 40.7349 76.9347C40.7547 76.6732 40.7762 76.4108 40.7986 76.1484C40.8433 75.6435 40.895 75.1369 40.9518 74.6286C40.9793 74.3843 41.0043 74.1409 41.0353 73.8958C41.0792 73.5411 41.1342 73.1838 41.1842 72.8273C41.2591 72.2966 41.3365 71.7649 41.4243 71.2315C41.4837 70.8725 41.55 70.5135 41.6154 70.1544C41.7092 69.6383 41.8065 69.1213 41.9132 68.6035C41.9976 68.1909 42.0854 67.7784 42.1775 67.3641C42.2541 67.0189 42.3315 66.6745 42.4133 66.3293C42.5218 65.8745 42.6354 65.4196 42.7524 64.9648C42.8394 64.6248 42.9263 64.2856 43.0184 63.9455C43.1664 63.3992 43.3222 62.852 43.4832 62.3057C43.5434 62.1012 43.5994 61.8975 43.6614 61.6929C43.8903 60.9343 44.1305 60.1757 44.3835 59.4187C44.4248 59.2953 44.4687 59.1736 44.5101 59.0502C44.7209 58.4271 44.9396 57.8039 45.1659 57.1825C45.2512 56.9495 45.3381 56.7173 45.425 56.4843C45.635 55.9233 45.8502 55.3632 46.0714 54.8048C46.1446 54.6218 46.2152 54.438 46.2883 54.2559C46.5818 53.5292 46.8848 52.8051 47.1981 52.0827C47.2549 51.9506 47.3152 51.8203 47.3729 51.6883C47.638 51.0867 47.9091 50.486 48.188 49.8888C48.2818 49.6868 48.3765 49.4849 48.472 49.2829C48.6287 48.9523 48.7931 48.6235 48.954 48.2938C49.344 47.4955 49.7451 46.7015 50.1582 45.9126C50.2856 45.6684 50.4104 45.4233 50.5404 45.1807C51.0689 44.1908 51.6129 43.2095 52.1758 42.2385C52.2825 42.0547 52.3935 41.8735 52.502 41.6905C52.9995 40.8447 53.5099 40.0075 54.0324 39.1781C54.1856 38.9347 54.3379 38.6913 54.4929 38.4505C55.1419 37.4399 55.8064 36.4413 56.4906 35.4592C56.9288 34.83 57.372 34.206 57.8239 33.5898C57.8411 33.5665 57.8584 33.5423 57.8756 33.5181C58.3576 32.8622 58.8499 32.2158 59.3466 31.5762C59.5815 31.2733 59.8226 30.9773 60.061 30.6778C60.3597 30.3032 60.6575 29.9269 60.9613 29.5584C61.2092 29.2572 61.4623 28.9629 61.7136 28.666C62.0062 28.3199 62.298 27.9738 62.595 27.6337C63.2052 26.9347 63.8241 26.2459 64.4525 25.5719C64.4869 25.5356 64.5187 25.4976 64.5532 25.4614C65.2159 24.7537 65.8899 24.065 66.5699 23.3883C67.0011 22.9594 67.4366 22.5391 67.8747 22.1231C67.997 22.0074 68.1175 21.8874 68.2397 21.7718C68.8147 21.2332 69.3957 20.7076 69.981 20.1924C70.1419 20.0517 70.3046 19.9162 70.4664 19.7772C70.8959 19.4061 71.3272 19.0393 71.7627 18.6811C71.9805 18.5016 72.2008 18.3282 72.4194 18.1521C72.8059 17.8422 73.1941 17.5367 73.584 17.2381C73.8181 17.0586 74.0531 16.8825 74.2889 16.7065C74.6763 16.4182 75.0662 16.136 75.457 15.8589C75.6894 15.6941 75.9218 15.5284 76.1559 15.367C76.5768 15.077 77.0003 14.7974 77.4246 14.5212C77.6286 14.3891 77.83 14.2519 78.0349 14.1224C78.6623 13.7246 79.2933 13.3388 79.9285 12.9711C80.5388 12.6172 81.1447 12.2884 81.7489 11.9708C81.9073 11.888 82.0657 11.806 82.2232 11.7248C82.7629 11.4478 83.3009 11.1828 83.8345 10.9343C83.9008 10.9032 83.9671 10.8695 84.0333 10.8393C84.6324 10.564 85.2263 10.3103 85.8168 10.0703C85.9338 10.0229 86.0509 9.97626 86.168 9.92966C86.7455 9.70094 87.3205 9.48518 87.8903 9.29012C87.9497 9.27027 88.0082 9.25215 88.0676 9.2323C88.6116 9.04847 89.1513 8.88189 89.6867 8.72827C89.7736 8.70324 89.8605 8.67648 89.9466 8.65232C90.3761 8.53321 90.7996 8.43396 91.2239 8.33385C91.4159 8.28811 91.6113 8.23459 91.8024 8.19317C92.404 8.06371 92.9996 7.95151 93.5884 7.86089C93.6099 7.85743 93.6314 7.85571 93.6521 7.85226C94.1918 7.77026 94.7245 7.70726 95.2522 7.65807C95.4295 7.64167 95.6034 7.63304 95.7798 7.62009C96.1611 7.59161 96.5398 7.56917 96.9143 7.55881C97.0821 7.55364 97.2491 7.55105 97.4161 7.54932C97.8086 7.54587 98.1968 7.55191 98.5815 7.56744C98.7149 7.57262 98.8492 7.57435 98.9818 7.58212C99.4801 7.60973 99.9725 7.65289 100.458 7.71244C100.561 7.72539 100.661 7.74265 100.763 7.75646C101.158 7.81083 101.548 7.8747 101.934 7.94978C102.066 7.97567 102.197 8.00157 102.328 8.02918C102.769 8.12412 103.206 8.22942 103.634 8.35111C103.662 8.35888 103.692 8.36492 103.72 8.37355C104.173 8.50473 104.616 8.65663 105.053 8.81803C105.171 8.86204 105.288 8.90779 105.404 8.95353C105.758 9.09248 106.107 9.24093 106.45 9.4006C106.54 9.44202 106.63 9.48 106.718 9.52229C107.162 9.73633 107.599 9.96418 108.024 10.2127L95.0688 2.6635C94.9974 2.62207 94.9251 2.58065 94.8528 2.53922C94.4965 2.33813 94.1324 2.1517 93.7631 1.97305C93.6753 1.93076 93.5841 1.89278 93.4946 1.85136C93.2871 1.75556 93.0814 1.6563 92.8697 1.56741C92.7311 1.50958 92.5882 1.45952 92.4488 1.40515C92.3317 1.35941 92.2155 1.3128 92.0976 1.26965C91.6664 1.10998 91.2308 0.959808 90.785 0.830348C90.7781 0.828622 90.7712 0.826896 90.7652 0.82517C90.7368 0.817402 90.7075 0.811361 90.6799 0.80273C90.2513 0.680175 89.8149 0.575744 89.3734 0.480806C89.2425 0.453188 89.1108 0.426433 88.9791 0.401404C88.8423 0.374649 88.7071 0.342716 88.5694 0.31855C88.3198 0.275397 88.0642 0.2426 87.8103 0.208077C87.707 0.194268 87.6063 0.176144 87.503 0.163198C87.0683 0.109688 86.6293 0.0665346 86.1835 0.0380534C86.1318 0.0346011 86.0793 0.0354642 86.0277 0.032875C85.8951 0.0251074 85.76 0.0242443 85.6266 0.0190659C85.2418 0.00353073 84.8545 -0.00251074 84.462 0.000941527C84.295 0.00266766 84.128 0.00525686 83.9602 0.0104353C83.8293 0.0138875 83.7011 0.0121614 83.5703 0.0173398C83.325 0.0285596 83.0745 0.0535886 82.8257 0.071713C82.6501 0.084659 82.4754 0.0932896 82.2981 0.110551C81.7705 0.159746 81.2377 0.22275 80.6989 0.304741C80.6773 0.308193 80.6558 0.309919 80.6343 0.312508C80.6317 0.312508 80.6291 0.312508 80.6265 0.313372C80.0404 0.403993 79.4465 0.516192 78.8474 0.645652C78.6572 0.686216 78.4635 0.740589 78.2724 0.785469C77.9006 0.873502 77.5296 0.955493 77.1526 1.0582C77.1001 1.07287 77.0467 1.09013 76.9934 1.1048C76.9064 1.12897 76.8186 1.15572 76.7309 1.18075C76.1955 1.33352 75.6567 1.50095 75.1135 1.68392C75.0541 1.70377 74.9956 1.7219 74.9362 1.74175C74.3664 1.9368 73.7914 2.15343 73.213 2.38214C73.0968 2.42788 72.9806 2.47363 72.8644 2.52196C72.7439 2.57115 72.6243 2.61517 72.5038 2.66609C72.0312 2.86287 71.557 3.07259 71.0793 3.29181C71.013 3.32202 70.9467 3.35568 70.8804 3.38675C70.3459 3.63531 69.808 3.90114 69.2674 4.17818C69.1099 4.25845 68.9524 4.34044 68.794 4.42329C68.1898 4.74177 67.5838 5.07059 66.9727 5.42445C66.3375 5.79212 65.7065 6.17877 65.0791 6.57578C64.8751 6.70524 64.6728 6.84161 64.4697 6.97365C64.0453 7.24984 63.621 7.53033 63.2001 7.82032C62.966 7.98172 62.7327 8.14742 62.5003 8.31313C62.1095 8.59018 61.7205 8.8724 61.3331 9.16066C61.0982 9.33587 60.8632 9.51193 60.6291 9.69059C60.2374 9.99007 59.8492 10.2965 59.461 10.6072C59.2424 10.7824 59.0238 10.955 58.8069 11.1336C58.3714 11.4918 57.9393 11.8595 57.5089 12.2306C57.3479 12.3695 57.1844 12.5042 57.0243 12.6449C56.4381 13.1601 55.8571 13.6866 55.2822 14.2251C55.1608 14.3382 55.042 14.4573 54.9215 14.5712C54.5385 14.9346 54.1546 15.2979 53.7767 15.6716C53.7217 15.726 53.6683 15.7847 53.6132 15.8399C52.9324 16.5166 52.2593 17.2053 51.5965 17.913C51.5629 17.9493 51.5302 17.9872 51.4967 18.0226C50.8683 18.6967 50.2494 19.3854 49.6383 20.0854C49.5807 20.1518 49.5204 20.214 49.4619 20.2804C49.2243 20.554 48.9936 20.8371 48.7586 21.115C48.5073 21.4128 48.2534 21.7079 48.0046 22.0091C47.7008 22.3777 47.4038 22.7531 47.1043 23.1285C46.8659 23.428 46.6249 23.724 46.3899 24.027C46.346 24.0831 46.3012 24.1375 46.2573 24.1936C45.8046 24.7787 45.3587 25.3708 44.9189 25.9697C44.9017 25.993 44.8845 26.0172 44.8673 26.0414C44.4489 26.611 44.0358 27.1858 43.6295 27.7666C43.5968 27.8133 43.5667 27.8633 43.534 27.9099C42.8497 28.8921 42.1852 29.8907 41.5353 30.9013C41.4734 30.998 41.4062 31.0912 41.3434 31.1887C41.2513 31.3337 41.1661 31.4839 41.0749 31.6297C40.5524 32.4591 40.042 33.2963 39.5445 34.1421C39.4661 34.275 39.3809 34.4036 39.3035 34.5374C39.2742 34.5883 39.2475 34.6401 39.2182 34.6902C38.6553 35.6611 38.1113 36.6433 37.5829 37.6332C37.5398 37.7135 37.4925 37.792 37.4503 37.8723C37.3642 38.0345 37.2868 38.2011 37.2024 38.3634C36.7893 39.1531 36.3881 39.9471 35.9982 40.7463C35.9182 40.9111 35.8287 41.0734 35.7495 41.2382C35.6703 41.4031 35.5954 41.5697 35.5171 41.7345C35.4215 41.9365 35.3269 42.1384 35.233 42.3412C34.9559 42.9385 34.6839 43.5375 34.4196 44.1381C34.3611 44.2702 34.3009 44.4023 34.2432 44.5352C34.2234 44.5818 34.201 44.6284 34.1812 44.675C33.8894 45.3499 33.6088 46.0283 33.3334 46.7066C33.2594 46.8905 33.1888 47.0743 33.1156 47.2573C32.9874 47.5801 32.8565 47.9029 32.7317 48.2265C32.6414 48.4621 32.557 48.6995 32.4692 48.9359C32.3823 49.169 32.2953 49.4011 32.2101 49.635C31.9838 50.2564 31.7651 50.8778 31.5543 51.5018C31.5129 51.6253 31.4682 51.7478 31.4269 51.8704C31.4165 51.9014 31.4053 51.9334 31.3942 51.9644C31.1532 52.6911 30.9242 53.4178 30.7047 54.1454C30.6427 54.35 30.5868 54.5536 30.5265 54.7573C30.4052 55.1716 30.2804 55.585 30.1659 55.9993C30.1297 56.1322 30.0979 56.2642 30.0626 56.3971C29.9705 56.7381 29.8836 57.0781 29.7966 57.419C29.6804 57.873 29.566 58.3261 29.4584 58.7801C29.3766 59.1262 29.2983 59.4714 29.2217 59.8175C29.1674 60.0591 29.1072 60.3017 29.0555 60.5433C29.0194 60.7151 28.9918 60.8851 28.9574 61.0568C28.8515 61.5747 28.7543 62.0908 28.6596 62.6069C28.5942 62.9668 28.5279 63.3258 28.4685 63.6849C28.3807 64.2183 28.3033 64.749 28.2284 65.2807C28.1931 65.531 28.1475 65.7839 28.1148 66.0341C28.101 66.1394 28.0924 66.2439 28.0786 66.3492C28.0485 66.5943 28.0227 66.8377 27.9951 67.0819C27.9383 67.5894 27.8858 68.096 27.8419 68.6009C27.8187 68.8633 27.7971 69.1256 27.7773 69.3872C27.7386 69.899 27.7093 70.4082 27.6844 70.9165C27.6732 71.1469 27.6586 71.3774 27.6508 71.6078C27.6241 72.3363 27.6078 73.0621 27.6095 73.7828C27.6448 86.2644 32.0397 95.0461 39.127 99.1768L52.0811 106.725C44.9938 102.594 40.5989 93.8128 40.5636 81.3311C40.561 80.6105 40.5773 79.8855 40.6049 79.1562C40.6135 78.9266 40.6273 78.6953 40.6385 78.4658L40.6419 78.464Z" fill="url(#paint11_linear_1_287)"/>
<path d="M79.932 12.9736C101.739 0.349568 119.475 10.4837 119.547 35.6101C119.618 60.7357 101.996 91.34 80.1894 103.964C58.3774 116.591 40.642 106.457 40.5705 81.3302C40.4991 56.2038 58.1209 25.6003 79.932 12.9736Z" fill="url(#paint12_linear_1_287)"/>
<path d="M99.5189 21.457C102.471 25.0586 104.192 30.3725 104.213 37.1346C104.265 55.9995 91.0329 78.983 74.6566 88.4629C67.1716 92.7981 60.3262 93.5628 55.0938 91.3076C60.3856 97.7642 69.6376 98.7222 80.1515 92.6333C96.5279 83.1533 109.76 60.1707 109.707 41.3015C109.679 31.0569 105.738 24.1299 99.5189 21.4579V21.457Z" fill="url(#paint13_linear_1_287)"/>
<path d="M104.211 37.1335C104.263 55.9984 91.0314 78.9819 74.655 88.4618C67.17 92.797 60.3246 93.5617 55.0922 91.3065C52.1364 87.7049 50.4193 82.391 50.3986 75.6358C50.3461 56.7674 63.5782 33.784 79.958 24.304C87.443 19.9689 94.2884 19.2042 99.5174 21.4559C102.47 25.0575 104.19 30.3714 104.211 37.1335Z" fill="url(#paint14_linear_1_287)"/>
<path d="M80.0273 72.5757L77.3194 75.2046V70.91C72.3779 75.1735 69.2113 75.9261 67.8203 73.1669L70.8165 69.0785C71.9708 71.0886 74.1381 70.683 77.3194 67.8616V57.5359C73.8721 60.0526 71.6342 61.1418 70.6057 60.8043C69.5771 60.4677 69.0632 59.483 69.0632 57.8509C69.0632 53.5485 71.815 48.2657 77.3194 42.0024V38.3301L80.0273 35.7012V39.3735C84.3921 35.5225 87.2549 34.7009 88.6166 36.9103L85.6203 40.7984C84.8035 39.1733 82.9391 39.6782 80.0273 42.3114V51.8362C86.1376 47.0022 89.1933 46.795 89.1933 51.2157C89.1933 53.1153 88.4978 55.5517 87.1068 58.5267C85.7159 61.5017 83.3557 64.7537 80.0273 68.2819V72.5765V72.5757ZM77.3194 44.9394C75.795 46.5378 74.5788 48.188 73.6682 49.8891C72.7584 51.5902 72.303 53.0661 72.303 54.3149C72.303 56.7686 73.9746 56.6927 77.3185 54.0853V44.9386L77.3194 44.9394ZM80.0273 65.2318C81.8254 63.4125 83.2292 61.5526 84.2389 59.6521C85.2485 57.7525 85.7529 56.1567 85.7529 54.8664C85.7529 52.1219 83.8446 52.335 80.0273 55.5077V65.2327V65.2318Z" fill="white"/>
<path d="M41.5044 81.9549C41.4338 56.8293 59.0548 26.2249 80.8659 13.5983C92.0856 7.10284 102.228 6.63334 109.441 11.1299C102.183 5.98172 91.6458 6.19231 79.932 12.9734C58.1209 25.6001 40.4991 56.2036 40.5705 81.33C40.605 93.5277 44.8036 102.191 51.6095 106.434C45.3562 101.998 41.5371 93.5838 41.5044 81.9549Z" fill="url(#paint15_linear_1_287)"/>
<path d="M50.5149 90.8084L4.8666 113.504L21.1896 123.293L0 150.461L23.9242 161.663L38.1315 133.453L54.9993 143.568L50.5149 90.8084Z" fill="url(#paint16_linear_1_287)"/>
<path d="M57.3968 95.8865L11.7494 118.581L28.0724 128.37L6.88281 155.539L30.807 166.741L45.0143 138.53L61.8813 148.645L57.3968 95.8865Z" fill="url(#paint17_linear_1_287)"/>
<path d="M50.5155 90.8084L57.3971 95.8858L11.7496 118.58L4.86719 113.504L50.5155 90.8084Z" fill="url(#paint18_linear_1_287)"/>
<path d="M0 150.46L6.88245 155.538L28.0721 128.369L20.6852 123.939L0 150.46Z" fill="url(#paint19_linear_1_287)"/>
<path d="M56.7786 97.0836L61.1227 148.19L61.8819 148.645L57.3974 95.8865L11.75 118.581L12.5772 119.077L56.7786 97.0836Z" fill="url(#paint20_linear_1_287)"/>
<path d="M28.5992 128.685L28.0724 128.369L6.88281 155.538L7.44832 155.803L28.5992 128.685Z" fill="url(#paint21_linear_1_287)"/>
<path d="M138.541 97.7707C138.322 99.4062 137.743 101.038 136.86 102.662C134.811 106.442 131.141 110.16 126.631 113.663C118.486 120 107.62 125.647 98.6858 129.75V115.409L59.0859 155.232L98.6858 181.828V159.908C108.342 156.332 120.364 151.196 129.239 145.117C135.159 141.061 138.675 134.316 138.675 127.126L140.392 100.694L138.675 97.3789L138.541 97.7699V97.7707Z" fill="url(#paint22_linear_1_287)"/>
<path d="M140.26 100.943C140.041 102.578 139.461 104.21 138.579 105.834C136.53 109.614 132.86 113.332 128.35 116.835C120.205 123.172 109.339 128.819 100.405 132.922V118.581L60.8047 158.404L100.405 185V163.08C110.06 159.504 122.083 154.368 130.957 148.289C136.877 144.233 140.394 137.487 140.394 130.298V100.551L140.26 100.942V100.943Z" fill="url(#paint23_linear_1_287)"/>
<path d="M98.6858 115.408L100.402 118.58L60.8014 158.403L59.0859 155.231L98.6858 115.408Z" fill="url(#paint24_linear_1_287)"/>
<path d="M100.211 164.349V184.868L100.405 184.998V164.275C100.342 164.3 100.275 164.325 100.211 164.348V164.349Z" fill="url(#paint25_linear_1_287)"/>
<path d="M140.261 100.942C140.041 102.577 139.462 104.209 138.58 105.833C136.531 109.613 132.86 113.331 128.35 116.834C120.205 123.171 109.34 128.818 100.405 132.921V118.58L60.8047 158.403L61.4451 158.834L100.21 119.851V134.191C109.144 130.089 120.01 124.441 128.156 118.105C132.665 114.601 136.336 110.883 138.385 107.102C139.267 105.479 139.845 103.847 140.066 102.211L140.199 101.82V131.568C140.199 132.464 140.144 133.354 140.037 134.234C140.271 132.947 140.394 131.63 140.394 130.298V100.551L140.26 100.942H140.261Z" fill="url(#paint26_linear_1_287)"/>
</g>
<defs>
<linearGradient id="paint0_linear_1_287" x1="126.798" y1="106.606" x2="112.834" y2="79.7081" gradientUnits="userSpaceOnUse">
<stop stop-color="#149648"/>
<stop offset="0.99" stop-color="#5ED91A"/>
</linearGradient>
<linearGradient id="paint1_linear_1_287" x1="134.538" y1="86.909" x2="99.6539" y2="100.889" gradientUnits="userSpaceOnUse">
<stop stop-color="#149648"/>
<stop offset="0.99" stop-color="#5ED91A"/>
</linearGradient>
<linearGradient id="paint2_linear_1_287" x1="45.1875" y1="128.445" x2="106.741" y2="127.666" gradientUnits="userSpaceOnUse">
<stop stop-color="#C6853E"/>
<stop offset="0.27" stop-color="#FFEBAB"/>
<stop offset="1" stop-color="#CC9040"/>
</linearGradient>
<linearGradient id="paint3_linear_1_287" x1="86.0305" y1="75.9636" x2="52.3438" y2="140.993" gradientUnits="userSpaceOnUse">
<stop stop-color="#C6853E"/>
<stop offset="0.27" stop-color="#FFEBAB"/>
<stop offset="1" stop-color="#CC9040"/>
</linearGradient>
<linearGradient id="paint4_linear_1_287" x1="37.9083" y1="85.6961" x2="91.247" y2="119.13" gradientUnits="userSpaceOnUse">
<stop stop-color="#C6853E"/>
<stop offset="0.27" stop-color="#916D2D"/>
<stop offset="1" stop-color="#FAE2B5"/>
</linearGradient>
<linearGradient id="paint5_linear_1_287" x1="24.7695" y1="108.118" x2="92.5616" y2="113.237" gradientUnits="userSpaceOnUse">
<stop stop-color="#C6853E"/>
<stop offset="0.27" stop-color="#FFEBAB"/>
<stop offset="1" stop-color="#CC9040"/>
</linearGradient>
<linearGradient id="paint6_linear_1_287" x1="45.1878" y1="114.147" x2="106.741" y2="113.368" gradientUnits="userSpaceOnUse">
<stop stop-color="#C6853E"/>
<stop offset="0.27" stop-color="#FFEBAB"/>
<stop offset="1" stop-color="#CC9040"/>
</linearGradient>
<linearGradient id="paint7_linear_1_287" x1="86.0307" y1="61.6648" x2="52.344" y2="126.695" gradientUnits="userSpaceOnUse">
<stop stop-color="#C6853E"/>
<stop offset="0.27" stop-color="#FFEBAB"/>
<stop offset="1" stop-color="#CC9040"/>
</linearGradient>
<linearGradient id="paint8_linear_1_287" x1="37.9085" y1="71.3973" x2="91.2472" y2="104.832" gradientUnits="userSpaceOnUse">
<stop stop-color="#C6853E"/>
<stop offset="0.52" stop-color="#BC7A0F"/>
<stop offset="1" stop-color="#CCA460"/>
</linearGradient>
<linearGradient id="paint9_linear_1_287" x1="99.464" y1="114.414" x2="46.0765" y2="84.4644" gradientUnits="userSpaceOnUse">
<stop stop-color="#C6853E"/>
<stop offset="0.27" stop-color="#FFEBAB"/>
<stop offset="1" stop-color="#CC9040"/>
</linearGradient>
<linearGradient id="paint10_linear_1_287" x1="57.5844" y1="132.528" x2="98.5184" y2="67.522" gradientUnits="userSpaceOnUse">
<stop stop-color="#C6853E"/>
<stop offset="0.27" stop-color="#FFEBAB"/>
<stop offset="1" stop-color="white"/>
</linearGradient>
<linearGradient id="paint11_linear_1_287" x1="74.2502" y1="21.3523" x2="37.2364" y2="85.75" gradientUnits="userSpaceOnUse">
<stop stop-color="#C6853E"/>
<stop offset="0.27" stop-color="#FFEBAB"/>
<stop offset="1" stop-color="#CC9040"/>
</linearGradient>
<linearGradient id="paint12_linear_1_287" x1="46.1636" y1="112.59" x2="114.014" y2="4.8396" gradientUnits="userSpaceOnUse">
<stop stop-color="#C6853E"/>
<stop offset="0.27" stop-color="#FFEBAB"/>
<stop offset="1" stop-color="#CC9040"/>
</linearGradient>
<linearGradient id="paint13_linear_1_287" x1="122.92" y1="39.9465" x2="55.5355" y2="74.6322" gradientUnits="userSpaceOnUse">
<stop stop-color="#C6853E"/>
<stop offset="0.52" stop-color="#BC7A0F"/>
<stop offset="1" stop-color="#CCA460"/>
</linearGradient>
<linearGradient id="paint14_linear_1_287" x1="107.77" y1="12.5637" x2="60.7833" y2="79.7836" gradientUnits="userSpaceOnUse">
<stop stop-color="#C6853E"/>
<stop offset="0.27" stop-color="#FFEBAB"/>
<stop offset="1" stop-color="#CC9040"/>
</linearGradient>
<linearGradient id="paint15_linear_1_287" x1="33.0675" y1="104.341" x2="100.914" y2="-3.40464" gradientUnits="userSpaceOnUse">
<stop stop-color="#C6853E"/>
<stop offset="0.27" stop-color="#FFEBAB"/>
<stop offset="1" stop-color="white"/>
</linearGradient>
<linearGradient id="paint16_linear_1_287" x1="46.8697" y1="97.6767" x2="21.6836" y2="143.318" gradientUnits="userSpaceOnUse">
<stop stop-color="#FC9C03"/>
<stop offset="0.99" stop-color="#FFD712"/>
</linearGradient>
<linearGradient id="paint17_linear_1_287" x1="26.2304" y1="111.841" x2="45.3632" y2="156.508" gradientUnits="userSpaceOnUse">
<stop stop-color="#FC9C03"/>
<stop offset="0.99" stop-color="#FFD712"/>
</linearGradient>
<linearGradient id="paint18_linear_1_287" x1="39.387" y1="89.6554" x2="25.2399" y2="115.291" gradientUnits="userSpaceOnUse">
<stop stop-color="#FFD55F"/>
<stop offset="0.99" stop-color="#FFD712"/>
</linearGradient>
<linearGradient id="paint19_linear_1_287" x1="20.4253" y1="127.774" x2="9.1408" y2="148.223" gradientUnits="userSpaceOnUse">
<stop stop-color="#FFD55F"/>
<stop offset="0.99" stop-color="#FFD712"/>
</linearGradient>
<linearGradient id="paint20_linear_1_287" x1="30.6268" y1="102.101" x2="45.651" y2="121.535" gradientUnits="userSpaceOnUse">
<stop stop-color="#FBFCFE"/>
<stop offset="0.99" stop-color="#FFD712"/>
</linearGradient>
<linearGradient id="paint21_linear_1_287" x1="3.24964" y1="123.265" x2="18.273" y2="142.698" gradientUnits="userSpaceOnUse">
<stop stop-color="#FBFCFE"/>
<stop offset="0.99" stop-color="#FFD712"/>
</linearGradient>
<linearGradient id="paint22_linear_1_287" x1="138.5" y1="104.441" x2="82.9135" y2="163.878" gradientUnits="userSpaceOnUse">
<stop stop-color="#149648"/>
<stop offset="0.99" stop-color="#5ED91A"/>
</linearGradient>
<linearGradient id="paint23_linear_1_287" x1="82.0597" y1="151.013" x2="139.002" y2="138.844" gradientUnits="userSpaceOnUse">
<stop stop-color="#149648"/>
<stop offset="0.99" stop-color="#5ED91A"/>
</linearGradient>
<linearGradient id="paint24_linear_1_287" x1="97.1193" y1="118.226" x2="64.1648" y2="153.463" gradientUnits="userSpaceOnUse">
<stop stop-color="#149648"/>
<stop offset="0.99" stop-color="#5ED91A"/>
</linearGradient>
<linearGradient id="paint25_linear_1_287" x1="99.2202" y1="174.892" x2="102.066" y2="174.284" gradientUnits="userSpaceOnUse">
<stop stop-color="white"/>
<stop offset="0.99" stop-color="#5ED91A"/>
</linearGradient>
<linearGradient id="paint26_linear_1_287" x1="78.5315" y1="134.502" x2="135.475" y2="122.333" gradientUnits="userSpaceOnUse">
<stop stop-color="white"/>
<stop offset="0.99" stop-color="#5ED91A"/>
</linearGradient>
<clipPath id="clip0_1_287">
<rect width="152" height="185" fill="white"/>
</clipPath>
</defs>
</svg>
